<svg width="30" height="30" viewBox="0 0 30 30" fill="none" xmlns="http://www.w3.org/2000/svg">
<g clip-path="url(#clip0_415_17)">
<rect width="30" height="30" rx="15" fill="white"/>
<path d="M17.915 19C18.26 19 18.29 18.025 17.915 18.01H14.105L16.565 15.505C16.79 15.265 17 15.04 17.195 14.815C17.645 14.29 18.08 13.66 18.08 12.715C18.08 12.31 18.005 11.95 17.87 11.635C17.465 10.705 16.565 10.15 15.245 10.15C14.24 10.15 13.43 10.525 12.815 10.96C12.695 11.05 12.635 11.185 12.635 11.365V12.445C12.635 12.82 12.785 12.925 13.19 12.925C13.58 12.925 13.745 12.82 13.745 12.445V11.635C14.135 11.41 14.63 11.23 15.26 11.23C16.265 11.23 16.925 11.755 16.925 12.715C16.925 12.895 16.895 13.075 16.85 13.225C16.655 13.93 16.16 14.365 15.695 14.845L12.485 18.1C12.395 18.19 12.365 18.325 12.365 18.505C12.365 18.865 12.485 19 12.83 19H17.915Z" fill="black"/>
</g>
<rect x="1" y="1" width="28" height="28" rx="14" stroke="black" stroke-width="2"/>
<defs>
<clipPath id="clip0_415_17">
<rect width="30" height="30" rx="15" fill="white"/>
</clipPath>
</defs>
</svg>
