<svg width="30" height="30" viewBox="0 0 30 30" fill="none" xmlns="http://www.w3.org/2000/svg">
<g clip-path="url(#clip0_415_20)">
<rect width="30" height="30" rx="15" fill="white"/>
<path d="M16.985 14.38C17.63 14.05 18.11 13.51 18.11 12.565C18.11 12.205 18.035 11.875 17.915 11.575C17.51 10.69 16.595 10.15 15.32 10.15C14.345 10.15 13.61 10.405 12.98 10.795C12.83 10.885 12.785 10.99 12.785 11.2V12.01C12.785 12.385 12.935 12.475 13.34 12.475C13.715 12.475 13.88 12.385 13.88 12.01V11.515C14.27 11.335 14.765 11.23 15.335 11.23C16.295 11.23 16.985 11.65 16.985 12.565C16.985 13.555 16.31 13.945 15.29 13.945H14.885C14.525 13.945 14.42 14.08 14.42 14.44C14.42 14.8 14.525 14.935 14.885 14.935H15.41C16.505 14.935 17.24 15.415 17.24 16.48C17.24 17.545 16.505 18.07 15.38 18.07C14.495 18.07 13.715 17.71 13.19 17.305C12.92 17.08 12.68 17.275 12.515 17.515C12.32 17.83 12.35 18.07 12.605 18.235C13.295 18.745 14.21 19.165 15.365 19.165C15.845 19.165 16.28 19.105 16.655 18.97C17.66 18.61 18.38 17.83 18.38 16.48C18.38 15.385 17.78 14.725 16.985 14.38Z" fill="black"/>
</g>
<rect x="1" y="1" width="28" height="28" rx="14" stroke="black" stroke-width="2"/>
<defs>
<clipPath id="clip0_415_20">
<rect width="30" height="30" rx="15" fill="white"/>
</clipPath>
</defs>
</svg>
